<svg xmlns="http://www.w3.org/2000/svg" viewBox="0 0 100 100" width="100" height="100">
  <rect x="15" y="70" width="70" height="12" rx="6" fill="#75b2dd" stroke="#4a8ec2" stroke-width="1.5" />
  <rect x="15" y="52" width="70" height="12" rx="6" fill="#75b2dd" stroke="#4a8ec2" stroke-width="1.5" />
  <rect x="15" y="34" width="70" height="12" rx="6" fill="#75b2dd" stroke="#4a8ec2" stroke-width="1.5" />
  <rect x="15" y="16" width="70" height="12" rx="6" fill="#dfbe58" stroke="#cca232" stroke-width="1.5" />
  <path d="M50,71 L50,42 L42,42 L50,23 L58,42 L50,42" fill="#507c9b" opacity="0.9" />
  <defs>
    <filter id="glow" x="-20%" y="-20%" width="140%" height="140%">
      <feGaussianBlur stdDeviation="3" result="blur" />
      <feComposite in="SourceGraphic" in2="blur" operator="over" />
    </filter>
  </defs>
  <circle cx="50" cy="46" r="16" fill="none" stroke="#eed06b" stroke-width="2.5" stroke-dasharray="1 1" filter="url(#glow)" />
  <line x1="50" y1="26" x2="50" y2="33" stroke="#eed06b" stroke-width="2.5" stroke-linecap="round" />
  <line x1="50" y1="59" x2="50" y2="66" stroke="#eed06b" stroke-width="2.5" stroke-linecap="round" />
  <line x1="30" y1="46" x2="37" y2="46" stroke="#eed06b" stroke-width="2.5" stroke-linecap="round" />
  <line x1="63" y1="46" x2="70" y2="46" stroke="#eed06b" stroke-width="2.5" stroke-linecap="round" />
  <circle cx="50" cy="46" r="3" fill="#eed06b" />
  <g transform="translate(68, 8) scale(0.42)">
    <path d="M22,3 Q26,-4 32,-4 M32,12 Q40,6 44,12 M34,22 Q46,22 46,28" stroke="#507c9b" stroke-width="3.5" stroke-linecap="round" fill="none" />
    <path d="M12,25 C12,25 10,13 14,13 C18,13 18,25 18,25 M18,25 C18,25 18,11 22,11 C26,11 26,25 26,25 M26,25 C26,25 26,9 30,9 C34,9 34,25 34,25 M34,25 C34,25 34,14 38,14 C42,14 42,27 42,27 M42,27 L42,38 C42,46 32,50 24,50 C16,50 8,46 8,36 L8,28 C8,28 8,20 12,20 C16,20 16,28 16,28 M22,11 L22,35 M12,25 L12,35" fill="#507c9b" stroke="#ffffff" stroke-linecap="round" stroke-linejoin="round" stroke-width="3" />
  </g>
</svg>